<?xml version="1.0" encoding="UTF-8" standalone="no"?><!DOCTYPE svg PUBLIC "-//W3C//DTD SVG 1.1//EN" "http://www.w3.org/Graphics/SVG/1.1/DTD/svg11.dtd"><svg width="100%" height="100%" viewBox="0 0 5334 3334" version="1.1" xmlns="http://www.w3.org/2000/svg" xmlns:xlink="http://www.w3.org/1999/xlink" xml:space="preserve" xmlns:serif="http://www.serif.com/" style="fill-rule:evenodd;clip-rule:evenodd;stroke-linecap:round;stroke-linejoin:round;stroke-miterlimit:1.5;"><rect x="1399.42" y="0" width="382.685" height="3333.33" style="fill:#2a4766;"/><rect x="1753.18" y="1615.81" width="3580.15" height="354.421" style="fill:#2a4766;"/><path d="M3379.29,1970.23l0,-1970.23l-354.42,0l0,1970.23l354.42,0Z" style="fill:#2a4766;"/><path d="M4626.55,3333.33l0,-1717.53l-354.42,0l0,1717.53l354.42,0Z" style="fill:#2a4766;"/><rect x="0" y="1504.46" width="1399.42" height="111.349"/><rect id="Meeting1" x="371.306" y="352.564" width="656.807" height="926.873" style="fill:#9c9;"/><rect id="A61718" x="371.306" y="1871.92" width="656.807" height="1199.75" style="fill:#9c9;"/><text x="371.306px" y="221.124px" style="font-family:'ArialMT', 'Arial', sans-serif;font-size:150px;">Meeting 1</text><text x="371.306px" y="1802.96px" style="font-family:'ArialMT', 'Arial', sans-serif;font-size:150px;">Meeting 2</text><path id="A56309" d="M2315.3,419.262c0,-36.812 -29.887,-66.698 -66.699,-66.698l-203.415,0c-36.812,0 -66.698,29.886 -66.698,66.698l0,133.397c0,36.811 29.886,66.698 66.698,66.698l203.415,0c36.812,0 66.699,-29.887 66.699,-66.698l0,-133.397Z" style="fill:#9c9;"/><path d="M2315.3,2350.89c0,-36.811 -29.887,-66.698 -66.699,-66.698l-203.415,0c-36.812,0 -66.698,29.887 -66.698,66.698l0,133.397c0,36.811 29.886,66.698 66.698,66.698l203.415,0c36.812,0 66.699,-29.887 66.699,-66.698l0,-133.397Z" style="fill:#9c9;"/><path d="M2869.07,2350.89c0,-36.811 -29.886,-66.698 -66.698,-66.698l-203.416,0c-36.812,0 -66.698,29.887 -66.698,66.698l0,133.397c0,36.811 29.886,66.698 66.698,66.698l203.416,0c36.812,0 66.698,-29.887 66.698,-66.698l0,-133.397Z" style="fill:#9c9;"/><path d="M3422.83,2350.89c0,-36.811 -29.887,-66.698 -66.699,-66.698l-203.415,0c-36.812,0 -66.698,29.887 -66.698,66.698l0,133.397c0,36.811 29.886,66.698 66.698,66.698l203.415,0c36.812,0 66.699,-29.887 66.699,-66.698l0,-133.397Z" style="fill:#9c9;"/><path d="M3991.38,2350.89c0,-36.811 -29.886,-66.698 -66.698,-66.698l-203.415,0c-36.812,0 -66.699,29.887 -66.699,66.698l0,133.397c0,36.811 29.887,66.698 66.699,66.698l203.415,0c36.812,0 66.698,-29.887 66.698,-66.698l0,-133.397Z" style="fill:#9c9;"/><path id="A61720" d="M5157.29,2621.59c0,-36.812 -29.887,-66.698 -66.698,-66.698l-203.416,0c-36.812,0 -66.698,29.886 -66.698,66.698l0,133.396c0,36.812 29.886,66.698 66.698,66.698l203.416,0c36.811,0 66.698,-29.886 66.698,-66.698l0,-133.396Z" style="fill:#9c9;"/><path id="A61715" d="M4159.78,1112.91c0,-36.812 -29.886,-66.699 -66.698,-66.699l-203.415,0c-36.812,0 -66.699,29.887 -66.699,66.699l0,133.396c0,36.812 29.887,66.698 66.699,66.698l203.415,0c36.812,0 66.698,-29.886 66.698,-66.698l0,-133.396Z" style="fill:#9c9;"/><path id="A617181" serif:id="A61718" d="M4159.78,347.831c0,-36.812 -29.886,-66.698 -66.698,-66.698l-203.415,0c-36.812,0 -66.699,29.886 -66.699,66.698l0,133.396c0,36.812 29.887,66.698 66.699,66.698l203.415,0c36.812,0 66.698,-29.886 66.698,-66.698l0,-133.396Z" style="fill:#9c9;"/><path id="A61717" d="M5001.47,1112.91c0,-36.812 -29.887,-66.699 -66.698,-66.699l-203.416,0c-36.812,0 -66.698,29.887 -66.698,66.699l0,133.396c0,36.812 29.886,66.698 66.698,66.698l203.416,0c36.811,0 66.698,-29.886 66.698,-66.698l0,-133.396Z" style="fill:#9c9;"/><path id="A61719" d="M5001.47,347.831c0,-36.812 -29.887,-66.698 -66.698,-66.698l-203.416,0c-36.812,0 -66.698,29.886 -66.698,66.698l0,133.396c0,36.812 29.886,66.698 66.698,66.698l203.416,0c36.811,0 66.698,-29.886 66.698,-66.698l0,-133.396Z" style="fill:#9c9;"/><path d="M2315.3,2952.58c0,-36.812 -29.887,-66.698 -66.699,-66.698l-203.415,0c-36.812,0 -66.698,29.886 -66.698,66.698l0,133.396c0,36.812 29.886,66.698 66.698,66.698l203.415,0c36.812,0 66.699,-29.886 66.699,-66.698l0,-133.396Z" style="fill:#9c9;"/><path d="M2869.07,2952.58c0,-36.812 -29.886,-66.698 -66.698,-66.698l-203.416,0c-36.812,0 -66.698,29.886 -66.698,66.698l0,133.396c0,36.812 29.886,66.698 66.698,66.698l203.416,0c36.812,0 66.698,-29.886 66.698,-66.698l0,-133.396Z" style="fill:#9c9;"/><path d="M3422.83,2952.58c0,-36.812 -29.887,-66.698 -66.699,-66.698l-203.415,0c-36.812,0 -66.698,29.886 -66.698,66.698l0,133.396c0,36.812 29.886,66.698 66.698,66.698l203.415,0c36.812,0 66.699,-29.886 66.699,-66.698l0,-133.396Z" style="fill:#9c9;"/><path d="M3991.38,2952.58c0,-36.812 -29.886,-66.698 -66.698,-66.698l-203.415,0c-36.812,0 -66.699,29.886 -66.699,66.698l0,133.396c0,36.812 29.887,66.698 66.699,66.698l203.415,0c36.812,0 66.698,-29.886 66.698,-66.698l0,-133.396Z" style="fill:#9c9;"/><path id="A61671" d="M2315.3,911.244c0,-36.811 -29.887,-66.698 -66.699,-66.698l-203.415,0c-36.812,0 -66.698,29.887 -66.698,66.698l0,133.397c0,36.812 29.886,66.698 66.698,66.698l203.415,0c36.812,0 66.699,-29.886 66.699,-66.698l0,-133.397Z" style="fill:#9c9;"/><path id="A56308" d="M2835.07,419.262c0,-36.812 -29.887,-66.698 -66.698,-66.698l-203.416,0c-36.812,0 -66.698,29.886 -66.698,66.698l0,133.397c0,36.811 29.886,66.698 66.698,66.698l203.416,0c36.811,0 66.698,-29.887 66.698,-66.698l0,-133.397Z" style="fill:#9c9;"/><path id="A61716" d="M2835.07,911.244c0,-36.811 -29.887,-66.698 -66.698,-66.698l-203.416,0c-36.812,0 -66.698,29.887 -66.698,66.698l0,133.397c0,36.812 29.886,66.698 66.698,66.698l203.416,0c36.811,0 66.698,-29.886 66.698,-66.698l0,-133.397Z" style="fill:#9c9;"/><rect x="0" y="0" width="5333.33" height="3333.33" style="fill:none;stroke:#000;stroke-width:120.83px;"/><rect x="1399.42" y="59.005" width="382.685" height="86.065" style="fill:#f96;"/><rect x="1932.61" y="1580.6" width="382.685" height="86.065" style="fill:#f96;"/><rect x="3543.26" y="1572.77" width="382.685" height="86.065" style="fill:#f96;"/><rect x="2996.62" y="1927.19" width="382.685" height="86.065" style="fill:#f96;"/><rect x="4272.13" y="3186.4" width="354.421" height="86.065" style="fill:#f96;"/></svg>