<?xml version="1.0" encoding="UTF-8" standalone="no"?><!DOCTYPE svg PUBLIC "-//W3C//DTD SVG 1.1//EN"
        "http://www.w3.org/Graphics/SVG/1.1/DTD/svg11.dtd">
<svg width="100%" height="100%" viewBox="0 0 2084 2084" version="1.1" xmlns="http://www.w3.org/2000/svg"
     xmlns:xlink="http://www.w3.org/1999/xlink" xml:space="preserve" xmlns:serif="http://www.serif.com/"
     style="fill-rule:evenodd;clip-rule:evenodd;stroke-linejoin:round;stroke-miterlimit:10;"><path d="M1719.32,1219.77l0,-745.416l-1355.3,0l0,745.416" style="fill:none;fill-rule:nonzero;stroke:#000;stroke-width:135.53px;"/>
    <path d="M1922.61,1694.13l-1761.89,0l135.53,-271.06l1490.83,0l135.53,271.06Z"
          style="fill:none;fill-rule:nonzero;stroke:#000;stroke-width:135.53px;"/>
    <g id="bulb"><path d="M1745.94,45.632c-111.647,-67.22 -256.601,-31.216 -323.821,80.431c-44.596,74.07 -24.091,193.37 -40.922,277.171c-25.094,124.969 -66.235,184.069 10.72,230.402c78.095,47.019 109.743,-17.397 208.388,-97.906c66.349,-54.189 181.814,-92.776 226.066,-166.276c67.221,-111.647 31.18,-256.624 -80.431,-323.822Zm-253.025,528.038l-97.952,-43.477c2.412,-11.366 5.547,-24.475 9.954,-41.4c0.056,-0.217 0.104,-0.463 0.178,-0.669l122.257,54.255c-4.881,4.447 -10.038,9.104 -14.62,13.305c-7.375,6.801 -13.839,12.673 -19.817,17.986Zm-82.514,-106.461c3.316,-13.075 6.563,-26.993 9.808,-41.863l142.701,85.917c-6.231,5.236 -12.474,10.49 -18.184,15.565l-134.325,-59.619Zm3.643,129.677c-18.614,-11.207 -25.883,-18.513 -22.866,-45.062l83.748,37.128c-29.581,23.6 -39.2,20.988 -60.882,7.934Zm185.417,-113.689l-171.495,-103.253c2.798,-25.355 3.758,-51.816 4.61,-77.765c1.853,-57.344 3.801,-116.633 26.293,-153.99c54.907,-91.195 173.749,-120.714 264.945,-65.807c91.196,54.907 120.714,173.75 65.807,264.945c-22.325,37.081 -73.993,66.761 -123.979,95.475c-22.38,12.889 -45.221,26.125 -66.181,40.395Z" style="fill:#fdbf2d;fill-rule:nonzero;"/>
        <path d="M1690.62,137.508c-60.803,-36.609 -140.022,-16.932 -176.63,43.871c-3.053,5.072 -1.415,11.666 3.656,14.719c5.072,3.054 11.666,1.416 14.719,-3.656c30.502,-50.66 96.532,-67.061 147.192,-36.559c5.072,3.053 11.666,1.415 14.719,-3.656c3.054,-5.072 1.397,-11.677 -3.656,-14.719Z"
              style="fill:#fdbf2d;fill-rule:nonzero;"/></g>
    <g id="bulb1" serif:id="bulb"><path d="M70.76,18.083c-68.658,31.818 -98.513,113.244 -66.696,181.902c21.109,45.549 85.154,74.51 119.978,109.874c51.933,52.734 66.967,91.751 114.291,69.819c48.024,-22.255 27.345,-58.437 20.727,-132.074c-4.469,-49.542 14.548,-117.626 -6.399,-162.826c-31.817,-68.658 -113.266,-98.503 -181.901,-66.695Zm171.6,293.512l-52.783,32.957c-4.681,-4.858 -9.965,-10.632 -16.67,-18.259c-0.087,-0.097 -0.189,-0.2 -0.264,-0.303l65.875,-41.139c0.551,3.794 1.112,7.789 1.641,11.36c0.871,5.76 1.591,10.78 2.201,15.384Zm-78.048,5.037c-5.209,-5.849 -10.846,-11.94 -16.941,-18.339l87.754,-40.668c0.49,4.701 0.986,9.413 1.568,13.81l-72.381,45.197Zm63.547,40.447c-11.446,5.304 -17.325,6.423 -29.111,-3.667l45.108,-28.194c1.723,21.906 -2.663,25.682 -15.997,31.861Zm5.663,-126.165l-105.461,48.874c-11.283,-9.596 -23.696,-18.668 -35.898,-27.523c-26.974,-19.551 -54.853,-39.781 -65.499,-62.754c-25.989,-56.081 -1.512,-122.839 54.569,-148.828c56.081,-25.99 122.839,-1.513 148.829,54.569c10.567,22.803 8.027,57.308 5.57,90.691c-1.085,14.957 -2.152,30.248 -2.11,44.971Z" style="fill:#fdbf2d;fill-rule:nonzero;"/>
        <path d="M96.943,74.582c-37.391,17.328 -53.707,61.828 -36.379,99.219c1.445,3.119 5.149,4.477 8.268,3.032c3.119,-1.445 4.477,-5.15 3.032,-8.268c-14.438,-31.154 -0.838,-68.245 30.316,-82.683c3.118,-1.445 4.477,-5.149 3.031,-8.268c-1.445,-3.119 -5.16,-4.472 -8.268,-3.032Z"
              style="fill:#fdbf2d;fill-rule:nonzero;"/></g>
    <text x="0px" y="1987.38px" style="font-family:'Roboto-Bold', 'Roboto';font-weight:700;font-size:225px;">W<tspan
            x="193.469px " y="1987.38px ">o</tspan>rk smar<tspan x="1097.97px " y="1987.38px ">t</tspan> not har
        <tspan x="1942.05px " y="1987.38px ">d</tspan></text></svg>
