<?xml version="1.0" encoding="UTF-8" standalone="no"?><!DOCTYPE svg PUBLIC "-//W3C//DTD SVG 1.1//EN" "http://www.w3.org/Graphics/SVG/1.1/DTD/svg11.dtd"><svg width="100%" height="100%" viewBox="0 0 2084 2084" version="1.1" xmlns="http://www.w3.org/2000/svg" xmlns:xlink="http://www.w3.org/1999/xlink" xml:space="preserve" xmlns:serif="http://www.serif.com/" style="fill-rule:evenodd;clip-rule:evenodd;stroke-linejoin:round;stroke-miterlimit:10;"><path d="M1719.32,1219.77l0,-745.416l-1355.3,0l0,745.416" style="fill:none;fill-rule:nonzero;stroke:#000;stroke-width:135.53px;"/><path d="M1922.61,1694.13l-1761.89,0l135.53,-271.06l1490.83,0l135.53,271.06Z" style="fill:none;fill-rule:nonzero;stroke:#000;stroke-width:135.53px;"/><g id="bulb"><path d="M1943.61,145.467c-69.228,-41.681 -159.109,-19.356 -200.79,49.872c-27.652,45.928 -14.938,119.902 -25.374,171.864c-15.56,77.488 -41.07,114.134 6.647,142.863c48.424,29.155 68.047,-10.787 129.214,-60.708c41.14,-33.6 112.736,-57.526 140.175,-103.101c41.681,-69.228 19.333,-159.123 -49.872,-200.79Zm-156.892,327.417l-60.736,-26.959c1.495,-7.047 3.439,-15.176 6.172,-25.67c0.034,-0.135 0.064,-0.288 0.11,-0.415l75.807,33.641c-3.026,2.758 -6.224,5.645 -9.065,8.25c-4.573,4.217 -8.581,7.858 -12.288,11.153Zm-51.163,-66.013c2.056,-8.107 4.069,-16.737 6.081,-25.958l88.484,53.274c-3.864,3.247 -7.735,6.505 -11.275,9.652l-83.29,-36.968Zm2.258,80.408c-11.542,-6.949 -16.049,-11.479 -14.178,-27.941l51.929,23.022c-18.342,14.633 -24.306,13.014 -37.751,4.919Zm114.971,-70.494l-106.338,-64.024c1.735,-15.721 2.33,-32.128 2.858,-48.219c1.149,-35.556 2.357,-72.319 16.304,-95.483c34.045,-56.547 107.735,-74.85 164.282,-40.805c56.547,34.046 74.85,107.736 40.805,164.283c-13.844,22.993 -45.881,41.396 -76.875,59.201c-13.877,7.991 -28.04,16.199 -41.036,25.047Z" style="fill:#fdbf2d;fill-rule:nonzero;"/><path d="M1909.31,202.436c-37.701,-22.7 -86.822,-10.499 -109.521,27.203c-1.894,3.144 -0.878,7.233 2.267,9.127c3.144,1.893 7.233,0.877 9.126,-2.267c18.913,-31.413 59.856,-41.582 91.269,-22.67c3.144,1.894 7.233,0.878 9.126,-2.267c1.894,-3.144 0.867,-7.24 -2.267,-9.126Z" style="fill:#fdbf2d;fill-rule:nonzero;"/></g><g id="bulb1" serif:id="bulb"><path d="M95.647,35.428c-68.658,31.818 -98.513,113.243 -66.695,181.901c21.109,45.55 85.154,74.51 119.977,109.875c51.933,52.733 66.967,91.75 114.291,69.819c48.024,-22.255 27.345,-58.437 20.727,-132.075c-4.468,-49.541 14.548,-117.625 -6.398,-162.825c-31.818,-68.658 -113.266,-98.503 -181.902,-66.695Zm171.601,293.511l-52.784,32.958c-4.681,-4.858 -9.965,-10.632 -16.67,-18.259c-0.086,-0.097 -0.189,-0.2 -0.264,-0.303l65.876,-41.139c0.55,3.794 1.111,7.789 1.64,11.36c0.871,5.76 1.592,10.779 2.202,15.383Zm-78.049,5.038c-5.209,-5.849 -10.846,-11.94 -16.941,-18.339l87.755,-40.668c0.49,4.7 0.985,9.413 1.568,13.81l-72.382,45.197Zm63.548,40.447c-11.447,5.304 -17.325,6.423 -29.112,-3.668l45.108,-28.193c1.724,21.905 -2.662,25.681 -15.996,31.861Zm5.663,-126.165l-105.462,48.874c-11.283,-9.596 -23.696,-18.668 -35.898,-27.523c-26.974,-19.551 -54.852,-39.781 -65.498,-62.754c-25.99,-56.081 -1.513,-122.839 54.568,-148.829c56.082,-25.989 122.84,-1.512 148.829,54.569c10.568,22.803 8.027,57.309 5.571,90.691c-1.085,14.957 -2.152,30.249 -2.11,44.972Z" style="fill:#fdbf2d;fill-rule:nonzero;"/><path d="M121.83,91.927c-37.391,17.328 -53.707,61.828 -36.379,99.219c1.445,3.119 5.15,4.477 8.268,3.032c3.119,-1.446 4.477,-5.15 3.032,-8.269c-14.437,-31.153 -0.838,-68.245 30.316,-82.682c3.119,-1.445 4.477,-5.15 3.032,-8.268c-1.446,-3.119 -5.161,-4.472 -8.269,-3.032Z" style="fill:#fdbf2d;fill-rule:nonzero;"/></g><text x="22.299px" y="2042.45px" style="font-family:'Roboto-Regular', 'Roboto';font-size:225px;">W<tspan x="218.515px " y="2042.45px ">o</tspan>rk smar<tspan x="1110.5px " y="2042.45px ">t</tspan> not har<tspan x="1942.38px " y="2042.45px ">d</tspan></text></svg>